<svg width="48" height="32" viewBox="0 0 48 32" fill="none" xmlns="http://www.w3.org/2000/svg">
<g clip-path="url(#clip0_73_699)">
<path d="M7.728 10.912C8.016 10.336 8.504 9.888 9.192 9.568C9.528 9.744 9.8 10.016 10.008 10.384C10.104 10.576 10.16 10.8 10.176 11.056C10.192 11.312 10.2 11.752 10.2 12.376V19.624C10.2 20.232 10.192 20.672 10.176 20.944C10.16 21.2 10.104 21.416 10.008 21.592C9.912 21.768 9.792 21.928 9.648 22.072C9.52 22.216 9.368 22.336 9.192 22.432C8.504 22.112 8.016 21.664 7.728 21.088C7.584 20.816 7.496 20.488 7.464 20.104C7.432 19.704 7.416 19.04 7.416 18.112V13.888C7.416 12.96 7.432 12.304 7.464 11.92C7.496 11.52 7.584 11.184 7.728 10.912ZM26.88 4.936C26.944 5.032 26.952 5.168 26.904 5.344L24.408 14.248H28.2C28.6 14.248 28.856 14.368 28.968 14.608C29.08 14.832 29.016 15.104 28.776 15.424L20.256 26.8C20.144 26.944 20.032 27.024 19.92 27.04C19.808 27.056 19.72 27.008 19.656 26.896C19.608 26.8 19.608 26.664 19.656 26.488L22.128 17.752H17.712C17.312 17.752 17.056 17.64 16.944 17.416C16.832 17.176 16.904 16.896 17.16 16.576L26.28 5.056C26.392 4.912 26.504 4.832 26.616 4.816C26.744 4.8 26.832 4.84 26.88 4.936ZM36.504 26.92C35.592 27 34.048 27.04 31.872 27.04H22.968L24.48 25H31.872C34 25 35.4 24.976 36.072 24.928C36.904 24.864 37.544 24.728 37.992 24.52C38.52 24.264 38.984 23.936 39.384 23.536C39.8 23.12 40.136 22.648 40.392 22.12C40.6 21.672 40.736 21.032 40.8 20.2C40.848 19.528 40.872 18.128 40.872 16C40.872 13.872 40.848 12.472 40.8 11.8C40.736 10.968 40.6 10.328 40.392 9.88C40.136 9.352 39.8 8.888 39.384 8.488C38.984 8.072 38.52 7.736 37.992 7.48C37.544 7.272 36.904 7.136 36.072 7.072C35.4 7.024 34 7 31.872 7H28.824L29.4 4.96H31.872C34.048 4.96 35.592 5 36.504 5.08C37.432 5.144 38.224 5.328 38.88 5.632C39.616 5.984 40.272 6.448 40.848 7.024C41.424 7.6 41.888 8.256 42.24 8.992C42.416 9.344 42.544 9.736 42.624 10.168C42.72 10.584 42.792 11.104 42.84 11.728C42.84 11.84 42.88 11.928 42.96 11.992C43.056 12.056 43.16 12.08 43.272 12.064H43.632C44.128 12.096 44.552 12.288 44.904 12.64C45.272 12.992 45.456 13.408 45.456 13.888V18.112C45.456 18.608 45.272 19.032 44.904 19.384C44.552 19.736 44.128 19.912 43.632 19.912H43.272C43.16 19.912 43.056 19.944 42.96 20.008C42.88 20.072 42.84 20.16 42.84 20.272C42.792 20.896 42.72 21.424 42.624 21.856C42.544 22.272 42.416 22.656 42.24 23.008C41.888 23.744 41.424 24.4 40.848 24.976C40.272 25.552 39.616 26.016 38.88 26.368C38.224 26.672 37.432 26.856 36.504 26.92ZM9.84 24.928C10.512 24.976 11.912 25 14.04 25H17.736L17.184 27.04H14.04C11.88 27.04 10.336 27 9.408 26.92C8.48 26.856 7.688 26.672 7.032 26.368C6.296 26.016 5.64 25.552 5.064 24.976C4.488 24.4 4.024 23.744 3.672 23.008C3.368 22.352 3.176 21.56 3.096 20.632C3.032 19.704 3 18.16 3 16C3 13.824 3.032 12.28 3.096 11.368C3.176 10.44 3.368 9.648 3.672 8.992C4.024 8.256 4.488 7.6 5.064 7.024C5.64 6.448 6.296 5.984 7.032 5.632C7.688 5.328 8.48 5.144 9.408 5.08C10.336 5 11.88 4.96 14.04 4.96H23.52L21.912 7H14.04C11.912 7 10.512 7.024 9.84 7.072C9.008 7.136 8.368 7.272 7.92 7.48C7.392 7.736 6.92 8.072 6.504 8.488C6.104 8.888 5.776 9.352 5.52 9.88C5.312 10.328 5.176 10.968 5.112 11.8C5.064 12.472 5.04 13.872 5.04 16C5.04 18.128 5.064 19.528 5.112 20.2C5.176 21.032 5.312 21.672 5.52 22.12C5.776 22.648 6.104 23.12 6.504 23.536C6.92 23.936 7.392 24.264 7.92 24.52C8.368 24.728 9.008 24.864 9.84 24.928Z" fill="white"/>
</g>
<defs>
<clipPath id="clip0_73_699">
<rect width="48" height="32" rx="2" fill="white"/>
</clipPath>
</defs>
</svg>
