<svg width="48" height="48" viewBox="0 0 1024 1024" xmlns="http://www.w3.org/2000/svg">
  <path
    d="M288.042667 220.373333l29.141333 600.021334c1.450667 29.653333 25.088 39.210667 32.298667 41.429333 15.018667 4.608 36.138667 2.773333 50.517333-16.213333l100.565333-133.077334a189.397333 189.397333 0 0 1 150.357334-74.752h166.826666c23.936 0 38.101333-15.658667 43.392-30.336 2.56-7.04 9.045333-31.530667-13.909333-50.474666L382.72 173.44a56.661333 56.661333 0 0 0-62.976-7.125333c-20.949333 10.538667-32.810667 30.72-31.701333 54.058666z"
    fill="#000" />
  <path
    d="M363.776 928c-10.965333 0-22.144-1.664-33.152-5.034667A108.714667 108.714667 0 0 1 253.269333 823.466667L224.128 223.445333a119.893333 119.893333 0 0 1 66.944-114.304 120.533333 120.533333 0 0 1 132.394667 14.976l464.512 383.530667a108.373333 108.373333 0 0 1 33.365333 121.472 108.885333 108.885333 0 0 1-103.594667 72.704h-166.826666c-38.869333 0-75.989333 18.432-99.328 49.322667l-100.565334 133.034666a108.8 108.8 0 0 1-87.253333 43.818667zM288.042667 220.373333l29.141333 600.021334c1.450667 29.653333 25.088 39.210667 32.298667 41.429333 15.018667 4.608 36.138667 2.773333 50.517333-16.213333l100.565333-133.077334a189.397333 189.397333 0 0 1 150.357334-74.752h166.826666c23.936 0 38.101333-15.658667 43.392-30.336 2.56-7.04 9.045333-31.530667-13.909333-50.474666L382.72 173.44a56.661333 56.661333 0 0 0-62.976-7.125333c-20.949333 10.538667-32.810667 30.72-31.701333 54.058666z"
    fill="#eee" />
</svg>