<svg width="32" height="32" viewBox="0 0 32 32" fill="none" xmlns="http://www.w3.org/2000/svg">
<g clip-path="url(#clip0_84_270)">
<path d="M15.8727 3.56873C19.2949 3.56873 22.0679 6.34267 22.0688 9.76393V12.6695C22.4638 12.728 22.7856 12.8213 23.0754 12.9685C23.7648 13.3196 24.3262 13.88 24.6773 14.5694C25.0768 15.353 25.0768 16.3797 25.0768 18.4314V22.1306C25.0768 24.1822 25.0768 25.208 24.6773 25.9916C24.3262 26.681 23.7648 27.2414 23.0754 27.5925C22.2919 27.992 21.2661 27.992 19.2144 27.992H12.5346C10.483 27.992 9.45624 27.992 8.6727 27.5925C7.98333 27.2414 7.42287 26.681 7.07179 25.9916C6.67316 25.208 6.67316 24.1822 6.67316 22.1306V18.4314C6.67316 16.3797 6.67316 15.353 7.07179 14.5694C7.42287 13.88 7.98333 13.3196 8.6727 12.9685C8.96161 12.8213 9.28344 12.728 9.6775 12.6695V9.76393C9.6775 6.34267 12.4514 3.56873 15.8727 3.56873ZM15.8727 5.81787C13.693 5.81787 11.9266 7.58518 11.9266 9.76393V12.5717C12.1186 12.5717 12.3207 12.5699 12.5346 12.5699H19.2144C19.4265 12.5699 19.6286 12.5717 19.8197 12.5717V9.76393C19.8197 7.58427 18.0524 5.81787 15.8727 5.81787Z" fill="white"/>
</g>
<defs>
<clipPath id="clip0_84_270">
<rect width="32" height="32" rx="2" fill="white"/>
</clipPath>
</defs>
</svg>
